<svg width="146" height="60" viewBox="0 0 146 60" fill="none" xmlns="http://www.w3.org/2000/svg">
<path d="M55.1709 37.7113V29.0791H56.6802V37.7113H55.1709Z" fill="#58595B"/>
<path d="M58.1658 37.7113V29.0791H59.7667L63.7181 35.4386V29.0791H65.1563V37.7113H63.5621L59.6378 31.362H59.6005V37.7113H58.1658Z" fill="#58595B"/>
<path d="M65.8181 30.3836V29.0791H72.795V30.3836H70.0545V37.7113H68.5451V30.3836H65.8181Z" fill="#58595B"/>
<path d="M73.4963 37.7113V29.0791H79.6999V30.3836H75.0057V32.6461H79.3506V33.8793H75.0057V36.4068H79.7847V37.7113H73.4963Z" fill="#58595B"/>
<path d="M80.799 37.7113V29.0791H84.9167C85.8494 29.0791 86.5583 29.2829 87.0399 29.6906C87.5216 30.0982 87.7624 30.6724 87.7624 31.4129C87.7624 32.534 87.2875 33.2576 86.3378 33.5905V33.6143C87.1892 33.7366 87.6165 34.3447 87.6165 35.4386C87.6165 36.614 87.7726 37.3716 88.088 37.7113H86.4701C86.3175 37.4599 86.2395 37.0386 86.2395 36.4407C86.2395 35.6118 86.1275 35.0309 85.9003 34.698C85.6493 34.3345 85.1914 34.1545 84.5232 34.1545H82.3016V37.7079H80.7922L80.799 37.7113ZM82.3084 30.3123V33.0096H84.7844C85.768 33.0096 86.2564 32.551 86.2564 31.6304C86.2564 30.7097 85.7578 30.3123 84.7606 30.3123H82.3118H82.3084Z" fill="#58595B"/>
<path d="M88.936 37.7113V29.0791H90.537L94.4884 35.4386V29.0791H95.9265V37.7113H94.3324L90.4081 31.362H90.3708V37.7113H88.936Z" fill="#58595B"/>
<path d="M96.4087 37.7113L99.7157 29.0791H101.32L104.641 37.7113H103.023L102.212 35.425H98.7727L97.9621 37.7113H96.4053H96.4087ZM100.489 30.5637L99.1865 34.2768H101.819L100.526 30.5637H100.489Z" fill="#58595B"/>
<path d="M104.338 30.3836V29.0791H111.315V30.3836H108.575V37.7113H107.065V30.3836H104.338Z" fill="#58595B"/>
<path d="M112.017 37.7113V29.0791H113.527V37.7113H112.017Z" fill="#58595B"/>
<path d="M118.74 28.8721C119.995 28.8721 121.006 29.3137 121.769 30.2004C122.502 31.0564 122.868 32.1198 122.868 33.3937C122.868 34.6676 122.502 35.7275 121.769 36.5734C121.003 37.4669 119.995 37.9153 118.74 37.9153C117.485 37.9153 116.475 37.4669 115.711 36.5734C114.979 35.7275 114.613 34.6676 114.613 33.3937C114.613 32.1198 114.979 31.0564 115.711 30.2004C116.475 29.3137 117.485 28.8721 118.74 28.8721ZM118.74 30.1052C117.879 30.1052 117.211 30.4484 116.736 31.1346C116.325 31.7325 116.122 32.4866 116.122 33.3971C116.122 34.3075 116.325 35.0617 116.736 35.6596C117.211 36.3458 117.879 36.6889 118.74 36.6889C119.602 36.6889 120.27 36.3458 120.745 35.6596C121.155 35.0617 121.359 34.3109 121.359 33.3971C121.359 32.4832 121.152 31.7325 120.745 31.1346C120.27 30.4484 119.602 30.1052 118.74 30.1052Z" fill="#58595B"/>
<path d="M123.885 37.7113V29.0791H125.486L129.438 35.4386V29.0791H130.876V37.7113H129.282L125.357 31.362H125.32V37.7113H123.885Z" fill="#58595B"/>
<path d="M131.357 37.7113L134.664 29.0791H136.268L139.589 37.7113H137.971L137.161 35.425H133.721L132.911 37.7113H131.354H131.357ZM135.437 30.5637L134.135 34.2768H136.767L135.475 30.5637H135.437Z" fill="#58595B"/>
<path d="M140.108 37.7113V29.0791H141.618V36.4068H146V37.7113H140.108Z" fill="#58595B"/>
<path d="M55.0964 26.3955V8.77441H58.1762V26.3921H55.0964V26.3955Z" fill="#21409A"/>
<path d="M59.6548 11.4412V8.77441H73.8935V11.4412H68.3005V26.3955H65.2207V11.4412H59.6514H59.6548Z" fill="#21409A"/>
<path d="M73.2768 26.395L80.0265 8.77734H83.303L90.0764 26.395H86.7762L85.1244 21.7307H78.1034L76.4516 26.395H73.2734H73.2768ZM81.6037 11.811L78.9411 19.3867H84.3137L81.6783 11.811H81.6037Z" fill="#21409A"/>
<path d="M91.0664 26.3955V8.77441H94.1462V15.7827H102.154V8.77441H105.234V26.3921H102.154V18.4461H94.1462V26.3921H91.0664V26.3955Z" fill="#21409A"/>
<path d="M106.269 26.395L113.018 8.77734H116.295L123.068 26.395H119.768L118.116 21.7307H111.095L109.443 26.395H106.265H106.269ZM114.595 11.811L111.933 19.3867H117.305L114.67 11.811H114.595Z" fill="#21409A"/>
<path d="M124.129 26.3955V8.77441H132.531C134.437 8.77441 135.882 9.18887 136.866 10.0212C137.853 10.8535 138.344 12.0255 138.344 13.5372C138.344 15.8235 137.374 17.3047 135.438 17.9807V18.0283C137.178 18.2763 138.049 19.5162 138.049 21.755C138.049 24.1567 138.368 25.7024 139.009 26.3955H135.709C135.397 25.8859 135.241 25.023 135.241 23.8034C135.241 22.1083 135.01 20.926 134.552 20.25C134.044 19.5094 133.107 19.1391 131.744 19.1391H127.209V26.3955H124.129ZM127.209 11.2917V16.7951H132.26C134.264 16.7951 135.265 15.8575 135.265 13.9823C135.265 12.107 134.247 11.2917 132.209 11.2917H127.206H127.209Z" fill="#21409A"/>
<path d="M140.858 26.3955V8.77441H143.938V26.3921H140.858V26.3955Z" fill="#21409A"/>
<path d="M64.4649 42.6233H62.613C62.2568 41.2203 61.3783 40.5171 59.9775 40.5171C58.9227 40.5171 58.1019 40.9383 57.5185 41.7774C57.0165 42.5078 56.7621 43.4352 56.7621 44.5495C56.7621 45.6638 57.0131 46.5912 57.5185 47.3216C58.1019 48.1607 58.9193 48.5819 59.9775 48.5819C60.7678 48.5819 61.4021 48.3102 61.8871 47.7666C62.3314 47.274 62.5926 46.6184 62.6706 45.8099H64.4785C64.4004 47.0838 63.9493 48.1165 63.1251 48.9081C62.3009 49.6996 61.2529 50.0937 59.9775 50.0937C58.4377 50.0937 57.1996 49.5433 56.2601 48.446C55.3613 47.4065 54.9136 46.1088 54.9136 44.5461C54.9136 42.9834 55.3613 41.6687 56.2601 40.6326C57.1963 39.5455 58.4377 39.002 59.9775 39.002C61.1918 39.002 62.2093 39.3179 63.0268 39.9498C63.8747 40.6122 64.353 41.5023 64.4615 42.6199L64.4649 42.6233Z" fill="#58595B"/>
<path d="M74.5181 39.0049C76.0579 39.0049 77.2959 39.5484 78.2355 40.6355C79.1343 41.6852 79.582 42.9897 79.582 44.549C79.582 46.1083 79.1343 47.4128 78.2355 48.449C77.2993 49.5463 76.0579 50.0966 74.5181 50.0966C72.9782 50.0966 71.7402 49.5463 70.8006 48.449C69.9018 47.4094 69.4541 46.1117 69.4541 44.549C69.4541 42.9863 69.9018 41.6818 70.8006 40.6355C71.7368 39.5484 72.9782 39.0049 74.5181 39.0049ZM74.5181 40.5166C73.4632 40.5166 72.6424 40.9379 72.059 41.777C71.557 42.5073 71.3026 43.4348 71.3026 44.549C71.3026 45.6633 71.5536 46.5907 72.059 47.3211C72.6424 48.1602 73.4598 48.5815 74.5181 48.5815C75.5763 48.5815 76.3937 48.1602 76.9771 47.3211C77.4825 46.5907 77.7335 45.6633 77.7335 44.549C77.7335 43.4348 77.4825 42.5073 76.9771 41.777C76.3937 40.9379 75.5763 40.5166 74.5181 40.5166Z" fill="#58595B"/>
<path d="M85.1208 49.8458V39.2568H86.9728V48.2423H92.3488V49.8458H85.1242H85.1208Z" fill="#58595B"/>
<path d="M97.467 49.8458V39.2568H99.319V48.2423H104.695V49.8458H97.4704H97.467Z" fill="#58595B"/>
<path d="M109.816 49.8458V39.2568H117.427V40.8569H111.668V43.629H116.997V45.1407H111.668V48.2389H117.533V49.8424H109.82L109.816 49.8458Z" fill="#58595B"/>
<path d="M132.22 44.2705V49.8452H131.036L130.754 48.5985C130.269 49.1522 129.784 49.5395 129.296 49.7637C128.808 49.9879 128.231 50.0966 127.57 50.0966C126.03 50.0966 124.792 49.5463 123.852 48.449C122.953 47.4094 122.506 46.1117 122.506 44.549C122.506 42.9863 122.953 41.6818 123.852 40.6355C124.788 39.5484 126.03 39.0049 127.57 39.0049C128.774 39.0049 129.781 39.3106 130.592 39.9255C131.46 40.5676 131.962 41.4678 132.101 42.6263H130.293C130.205 41.9536 129.893 41.4305 129.36 41.0534C128.869 40.6967 128.268 40.52 127.57 40.52C126.515 40.52 125.694 40.9413 125.111 41.7804C124.609 42.5107 124.354 43.4382 124.354 44.5524C124.354 45.6667 124.605 46.5941 125.111 47.3245C125.684 48.1534 126.501 48.5747 127.57 48.5849C128.506 48.5951 129.232 48.3403 129.74 47.8205C130.249 47.3007 130.514 46.5873 130.534 45.6769H127.722V44.2671H132.223L132.22 44.2705Z" fill="#58595B"/>
<path d="M138.08 49.8458V39.2568H145.692V40.8569H139.932V43.629H145.261V45.1407H139.932V48.2389H145.797V49.8424H138.084L138.08 49.8458Z" fill="#58595B"/>
<path d="M24.136 0.0130062C24.136 0.0130062 28.6267 -0.197618 34.3046 1.07632C42.3058 2.87341 45.2974 5.31257 45.2974 5.31257V26.6603H24.1326V0.0130062H24.136Z" fill="#ED1C24"/>
<path d="M25.696 2.00041C25.696 2.00041 29.5559 1.82036 34.4367 2.90745C41.3119 4.43956 43.8863 6.52542 43.8863 6.52542V25.1452H25.6994V2.00041H25.696Z" fill="white"/>
<path d="M0 29.2354C0 34.7218 0 37.8471 0 37.8471C0 38.3737 0.0237426 39.0192 0.0237426 39.736L0.111929 43.4491C0.128888 51.7211 15.4395 57.8156 21.2734 59.9457V29.2354H0Z" fill="#ED1C24"/>
<path d="M45.3589 29.2354H24.0991V60C29.8007 57.9074 45.3894 51.7041 45.3725 43.3471L45.3454 38.5232C45.3555 38.2956 45.3623 38.0714 45.3623 37.8471C45.3623 37.8471 45.3623 34.7218 45.3623 29.2354" fill="#21409A"/>
<path d="M5.66742 46.2957C5.75561 46.3738 5.86076 46.418 5.96929 46.452C6.01678 46.4656 6.06766 46.4656 6.11853 46.4723C6.15584 46.4791 6.19654 46.4825 6.23725 46.4893C6.34917 46.5097 6.40684 46.5912 6.43058 46.6898C6.4611 46.8189 6.53233 46.9208 6.61034 47.0227C6.62052 47.0329 6.63069 47.0465 6.64426 47.0533C6.72227 47.1144 6.79689 47.1756 6.8783 47.2333C6.92239 47.2639 6.96987 47.2843 7.01736 47.308C7.32262 47.4541 7.63128 47.4575 7.94332 47.3352C8.09595 47.2775 8.21466 47.1722 8.30285 47.0329C8.41139 46.8698 8.4487 46.6898 8.42156 46.4995C8.39782 46.3433 8.33338 46.2006 8.22145 46.0851C8.10952 45.9696 7.97045 45.905 7.81782 45.8778C7.6211 45.8405 7.42777 45.8269 7.23104 45.8541C7.22426 45.8541 7.21408 45.8541 7.2073 45.8541C7.15981 45.8541 7.12929 45.8371 7.11572 45.7929C7.10894 45.7759 7.10555 45.7555 7.10215 45.7386C7.09537 45.7114 7.0852 45.6808 7.07841 45.6536C7.06824 45.6095 7.03771 45.5891 6.99023 45.5891C6.94952 45.5891 6.91221 45.5891 6.87151 45.5891C6.80028 45.5891 6.77315 45.5653 6.76297 45.4906C6.73584 45.2698 6.66461 45.0659 6.56625 44.8723C6.5052 44.7534 6.41362 44.6617 6.2983 44.5971C6.11175 44.4884 5.91502 44.468 5.70473 44.5258C5.5928 44.5564 5.49783 44.6141 5.40965 44.6888C5.24006 44.8315 5.16205 45.0184 5.14509 45.2324C5.13152 45.409 5.15526 45.5823 5.2231 45.7487C5.27737 45.888 5.35538 46.0069 5.45374 46.1156C5.47409 46.1394 5.49105 46.1598 5.51479 46.1802C5.55549 46.2142 5.59959 46.2447 5.64029 46.2787C5.64707 46.2855 5.65725 46.2923 5.66403 46.2991M13.8043 37.7756C13.6178 38.0168 13.4279 38.258 13.2413 38.4992C12.7936 39.0733 12.3493 39.6509 11.9016 40.225C11.4199 40.8433 10.9383 41.4649 10.4566 42.0832C10.0293 42.6336 10.9349 41.4683 10.5075 42.0187C10.3549 42.2157 10.2023 42.4127 10.0462 42.6098C10.0293 42.6336 10.0089 42.6539 9.99875 42.6845C10.0089 42.6947 10.0157 42.7049 10.0259 42.7151C10.0598 42.7423 10.0971 42.7694 10.131 42.8C10.1819 42.8442 10.1955 42.9121 10.1683 42.9665C10.131 43.0412 10.0666 43.082 9.99536 43.0616C9.97162 43.0548 9.94448 43.0412 9.92413 43.0276C9.89361 43.0072 9.86647 42.9835 9.83594 42.9597C9.82577 42.9495 9.80881 42.9461 9.79185 42.9359C9.77828 42.9529 9.7715 42.9699 9.75793 42.9869C9.78507 43.0208 9.81899 43.0412 9.84951 43.065C9.86986 43.082 9.89021 43.099 9.91056 43.116C9.94448 43.1499 9.95466 43.1941 9.94109 43.2417C9.91396 43.3504 9.79524 43.3979 9.70027 43.3368C9.66635 43.313 9.63244 43.2858 9.59852 43.2586C9.58834 43.2484 9.57138 43.2417 9.56121 43.2349C9.52729 43.2552 9.52729 43.2892 9.53407 43.3164C9.54764 43.3707 9.5646 43.4251 9.58495 43.4761C9.61209 43.5406 9.61209 43.5984 9.58495 43.6595C9.55443 43.7308 9.50694 43.7852 9.4391 43.826C9.38144 43.8599 9.32378 43.8905 9.26273 43.9177C9.15758 43.9652 9.05583 44.0094 8.94729 44.0536C8.90998 44.0672 8.88285 44.0875 8.85911 44.1181C8.79805 44.1997 8.737 44.2778 8.67256 44.3593C8.66238 44.3729 8.65221 44.3899 8.64203 44.4069C8.6556 44.4239 8.66238 44.4341 8.67256 44.4476C8.72004 44.5088 8.77092 44.5733 8.8218 44.6345C8.99478 44.8587 9.12367 45.1033 9.21525 45.3683C9.33735 45.7216 9.37805 46.0817 9.317 46.452C9.27969 46.6762 9.20168 46.8868 9.08297 47.0804C9.00495 47.2095 8.90659 47.325 8.79466 47.4303C8.65899 47.5628 8.50636 47.6648 8.33677 47.7429C8.08917 47.8584 7.82461 47.9229 7.55326 47.9331C7.39724 47.9399 7.24461 47.9365 7.09537 47.9127C6.95631 47.8924 6.81724 47.8652 6.68496 47.8244C6.58999 47.7938 6.49502 47.7599 6.40005 47.7225C6.23385 47.658 6.08122 47.573 5.93538 47.4779C5.69795 47.3284 5.48766 47.145 5.30111 46.9378C5.21971 46.8494 5.15187 46.7543 5.08064 46.6558C4.91105 46.4214 4.78895 46.1632 4.70415 45.888C4.6431 45.6876 4.60918 45.4838 4.60579 45.2765C4.59901 44.9912 4.65328 44.716 4.7686 44.4544C4.81947 44.3389 4.88731 44.2336 4.96193 44.1317C4.99585 44.0807 5.04333 44.04 5.08403 43.9958C5.15865 43.9109 5.24684 43.8328 5.33842 43.7682C5.54871 43.6221 5.77596 43.5236 6.02695 43.4659C6.2983 43.4047 6.56964 43.4013 6.84099 43.4353C7.03771 43.4591 7.22765 43.5066 7.41081 43.5746C7.52613 43.6153 7.64145 43.6561 7.7466 43.7207C7.76356 43.7308 7.78051 43.7342 7.79747 43.741C7.80765 43.7342 7.81443 43.7308 7.81782 43.724C7.88905 43.6323 7.96367 43.5406 8.03151 43.4455C8.04507 43.4285 8.05186 43.4081 8.05525 43.3877C8.06882 43.3164 8.0756 43.245 8.08578 43.1737C8.10952 43.0548 8.12309 42.9325 8.16379 42.817C8.18075 42.766 8.20449 42.7253 8.2418 42.6879C8.30624 42.62 8.37408 42.5792 8.47583 42.603C8.5301 42.6166 8.58776 42.6098 8.64203 42.6098C8.66917 42.6098 8.6963 42.603 8.70308 42.5656C8.68273 42.5486 8.66577 42.5316 8.64203 42.5147C8.62846 42.5045 8.61151 42.4943 8.59794 42.4807C8.55384 42.4365 8.53689 42.3618 8.56402 42.3108C8.59794 42.2497 8.63525 42.2123 8.71665 42.2157C8.74718 42.2157 8.77092 42.2327 8.79805 42.2497C8.82858 42.2735 8.85571 42.304 8.89981 42.3176C8.90998 42.3074 8.92016 42.3006 8.92694 42.2904C8.93033 42.2837 8.93033 42.2769 8.93373 42.2667C8.90998 42.2361 8.87946 42.2191 8.84893 42.1953C8.76753 42.1308 8.75057 41.9949 8.88624 41.927C8.93373 41.9032 8.97782 41.9066 9.01852 41.9405C9.04566 41.9575 9.0694 41.9779 9.09653 41.9983C9.10671 42.0085 9.12367 42.0119 9.14063 42.0187C9.15419 41.9983 9.16776 41.9813 9.18133 41.9643C9.30004 41.8114 9.41875 41.6586 9.53747 41.5023C9.8122 41.149 8.75396 42.5147 9.0287 42.1614C9.16098 41.9881 9.29326 41.8148 9.42893 41.6416C9.70366 41.2883 9.9784 40.935 10.2531 40.5851C10.3854 40.4152 10.5177 40.2386 10.6534 40.0687C10.9281 39.7154 11.2028 39.3621 11.4742 39.0088C11.6099 38.8355 11.7421 38.6657 11.8744 38.4924C12.1492 38.1391 12.4239 37.7858 12.6952 37.4359C12.8275 37.2661 12.9564 37.0962 13.0887 36.9263C13.3634 36.5764 13.6348 36.2265 13.9061 35.8732C14.1334 35.5811 14.3606 35.2889 14.5845 34.9968C14.788 34.7386 14.9881 34.477 15.1916 34.2154C15.3544 34.0048 15.5172 33.7976 15.68 33.5835C15.7105 33.5462 15.7411 33.5326 15.7818 33.5462C15.7953 33.5496 15.8089 33.553 15.8191 33.5564C15.9344 33.5903 16.0395 33.6481 16.1379 33.7194C16.2871 33.8315 16.4059 33.9776 16.5144 34.1271C16.5314 34.1475 16.5415 34.1712 16.5551 34.1984C16.5347 34.2256 16.5178 34.2494 16.5008 34.2732C16.3584 34.4566 16.2125 34.6434 16.0701 34.8269C16.0531 34.8507 16.0294 34.8677 16.0226 34.8982C16.0362 34.9288 16.0633 34.9424 16.087 34.9628C16.4059 35.2108 16.7247 35.4588 17.0401 35.7068C17.3047 35.914 17.5692 36.1178 17.8338 36.325C17.8575 36.342 17.8847 36.3556 17.8983 36.3896C17.8915 36.3998 17.8881 36.4134 17.8813 36.4236C17.8168 36.5187 17.6608 36.7157 17.6167 36.7531C17.5862 36.7531 17.5692 36.7327 17.5489 36.7157C17.3081 36.5289 17.0673 36.342 16.8264 36.1518C16.7654 36.1042 16.7009 36.0533 16.6365 36.0057C16.6229 35.9955 16.606 35.9887 16.5856 35.9785C16.5449 36.0295 16.5042 36.077 16.4703 36.1246C16.433 36.1756 16.3855 36.2163 16.3618 36.2809C16.4025 36.3114 16.4364 36.342 16.4771 36.3726C16.606 36.4745 16.7315 36.573 16.8604 36.6715C16.8773 36.6817 16.8977 36.6953 16.8977 36.7293C16.8807 36.7531 16.8604 36.7803 16.84 36.8074C16.779 36.889 16.7145 36.9671 16.6535 37.0486C16.6365 37.069 16.6162 37.086 16.6162 37.1166C16.6263 37.1438 16.6535 37.1539 16.6738 37.1709C16.7586 37.2355 16.84 37.3034 16.9248 37.368C16.9418 37.3816 16.9655 37.3917 16.9689 37.4257C16.9621 37.4359 16.9553 37.4495 16.9452 37.4631C16.8129 37.6329 16.684 37.7994 16.5517 37.9693C16.5449 37.9795 16.5314 37.9829 16.5246 37.9896C16.4907 37.9829 16.4737 37.9625 16.4533 37.9489C16.3685 37.8843 16.2871 37.8198 16.2024 37.7518C16.1854 37.7383 16.1718 37.7213 16.1379 37.7315C16.1074 37.7688 16.0735 37.813 16.0395 37.8572C16.0022 37.9013 15.9683 37.9489 15.931 37.9964C15.8937 38.0406 15.87 38.0882 15.8259 38.1221C15.7886 38.1221 15.7682 38.0984 15.7479 38.0814C15.619 37.9829 15.4935 37.8809 15.3646 37.7824C15.3408 37.7654 15.3205 37.7417 15.2934 37.7383C15.2832 37.7417 15.2798 37.745 15.2764 37.7484C15.2119 37.8334 15.1441 37.9149 15.0797 37.9998C15.0763 38.0066 15.0763 38.0202 15.0729 38.0304C15.0898 38.044 15.1034 38.061 15.1204 38.0746C15.195 38.1323 15.2696 38.1935 15.3476 38.2512C15.5613 38.4177 15.7716 38.5808 15.9819 38.7472C16.0022 38.7642 16.0294 38.7744 16.0328 38.805C16.0328 38.8118 16.0328 38.8186 16.026 38.8219C15.9412 38.9307 15.8598 39.0394 15.775 39.1447C15.7682 39.1549 15.7546 39.1583 15.7445 39.1685C15.7207 39.1515 15.7038 39.1413 15.6834 39.1243C15.29 38.8186 14.8931 38.5128 14.4997 38.2071C14.3063 38.0576 14.1164 37.9047 13.9231 37.7552C13.8993 37.7383 13.879 37.7145 13.8451 37.7111C13.8213 37.7281 13.8043 37.7586 13.784 37.7824" fill="white"/>
<path d="M35.8204 11.2414C36.102 11.1531 35.9358 10.8201 36.8685 10.6978C37.3908 10.6265 37.3264 10.1203 38.5135 10.3615C39.046 10.46 39.2122 10.8032 39.3513 11.2482C38.8188 10.9968 38.1336 11.1395 38.4152 11.1089C38.907 11.0511 39.1241 11.7578 39.1648 11.9344C38.6119 11.3739 38.0285 11.666 38.0149 11.7781C38.5576 11.6864 38.8832 12.162 38.907 12.2707C38.215 12.0363 37.0245 13.0928 36.5632 12.1213C36.4072 11.7917 35.4914 11.5471 35.817 11.238" fill="#ED1C24"/>
<path d="M30.7565 9.79057H31.4077L31.791 8.9209L32.3167 9.89928H32.9442L33.8159 9.35913L32.9442 10.5821C32.2828 10.4462 31.4891 10.4462 30.5631 10.5821L29.9187 9.37951L30.7565 9.79057Z" fill="#ED1C24"/>
<path d="M42.0648 21.1505C41.6951 21.3849 40.1145 21.2626 40.1145 21.2626C40.1145 21.2626 39.833 20.2129 40.5419 20.2129C41.2507 20.2129 42.4345 20.9263 42.0614 21.1471" fill="#ED1C24"/>
<path d="M36.1495 20.6002C35.773 20.8278 34.1856 20.7123 34.1856 20.7123C34.1856 20.7123 33.9143 19.6592 34.6164 19.6592C35.3185 19.6592 36.5192 20.3726 36.1495 20.6002Z" fill="#ED1C24"/>
<path d="M30.0778 20.8927C29.7047 21.1169 28.1207 21.0014 28.1207 21.0014C28.1207 21.0014 27.8324 19.9482 28.5413 19.9482C29.2502 19.9482 30.434 20.6616 30.0778 20.8927Z" fill="#ED1C24"/>
<path d="M26.8355 13.6154C26.8355 13.6154 27.8904 13.3267 27.8904 14.0401C27.8904 14.7535 27.1916 15.9459 26.9576 15.5756C26.7304 15.2019 26.8389 13.6154 26.8389 13.6154" fill="#ED1C24"/>
<path d="M41.3863 17.9371C41.471 17.4819 40.8571 16.7719 40.6875 16.6292C40.5824 16.5443 40.6231 16.3948 40.674 16.2657C40.3314 15.9532 39.9515 15.8343 39.9515 15.8343L39.9787 15.7256C39.9787 15.7256 40.3653 15.8546 40.7181 16.1672C40.7418 16.123 40.7622 16.0924 40.7622 16.0924C42.2139 15.6984 42.8956 14.0711 42.1019 13.2184C41.3048 12.376 40.25 12.342 38.9781 12.8278C37.7028 13.3102 36.787 13.3441 36.3935 13.1947C35.5388 12.8889 35.6541 11.4349 35.6541 11.4349C34.4704 13.7824 36.5631 13.9285 37.4416 13.7926C38.3642 13.6499 38.9374 13.3068 40.25 13.48C41.2167 13.6091 41.3422 14.3463 40.9623 14.7845C40.5315 15.2839 39.8023 14.9782 39.8023 14.9782C39.2325 14.5298 36.4241 14.8151 35.7423 14.8729C35.0707 14.9238 34.5246 14.3327 34.5246 14.3327L34.1075 13.4257C34.2058 14.1017 34.1515 14.7879 33.8124 15.1786C34.0159 14.2376 33.5003 13.976 33.8565 12.8685L33.2154 11.4621C32.649 10.4973 30.4782 11.136 30.4782 11.136C30.4782 11.136 29.2877 11.9853 28.7077 12.2774C28.5313 12.3624 28.9892 14.3225 29.342 14.1663C29.5285 14.0677 30.5528 13.8503 30.5528 13.8503V14.7845L30.1187 15.8614L27.7987 15.4708L27.3713 15.8614L27.5409 16.123L27.6664 16.2691C28.6365 16.4322 30.8683 18.1953 30.8683 18.1953C30.4884 18.4195 29.3182 19.8089 29.3182 19.8089L30.3222 20.4374L32.2555 18.338C34.5789 19.1873 36.2002 17.3154 36.4546 17.5396C36.709 17.7672 36.363 18.0492 36.4783 18.5928C36.5495 18.9121 36.4783 19.5304 36.4783 19.5304L35.8949 19.7648L36.4512 20.2438C36.4512 20.2438 36.9023 20.2438 37.3873 19.955C37.7163 19.7614 37.7536 18.7592 37.6349 18.5928C37.5332 18.4467 37.9945 18.0866 38.1166 17.9881C37.4823 17.0335 36.3494 17.1625 36.3325 17.1693L36.3223 17.0504C36.3223 17.0504 37.6824 16.8806 38.3235 18.0866L38.2997 18.0968C40.1822 19.7648 41.6406 18.8747 41.6406 18.8747C41.6406 18.8747 41.8102 19.5066 41.7254 20.3321L42.319 21.0285L42.8006 18.0492C42.8006 18.0492 41.3015 18.3923 41.3829 17.9405M30.4443 11.8528C30.3527 11.8766 30.2679 11.8596 30.2544 11.8154C30.2408 11.7611 30.312 11.6965 30.407 11.6727C30.4986 11.6558 30.5902 11.6727 30.5935 11.7169C30.6071 11.7645 30.5461 11.829 30.4409 11.8494M31.0514 17.5362C30.753 16.8908 31.0107 16.4933 30.6342 15.1412C31.2957 15.9022 31.2482 16.6156 31.0514 17.5362ZM31.2855 12.4167C31.2855 11.7509 31.143 11.5029 31.143 11.5029L31.316 11.5131C31.3567 11.7849 31.2821 12.4167 31.2821 12.4167M32.2623 16.0653C31.8756 14.5841 32.4251 14.1629 32.7813 12.3963C33.2086 13.9964 32.2555 14.6962 32.2623 16.0653ZM33.151 18.304V17.6483C33.6835 17.9949 34.5653 17.9609 35.783 17.5736C34.3788 18.6199 33.151 18.3006 33.151 18.3006" fill="#ED1C24"/>
<path d="M40.0401 36.7358L40.3589 37.2624V44.7089L35.1763 44.3896C34.9287 44.5934 34.6031 44.7055 34.2096 44.7055C33.8162 44.7055 33.5143 44.5968 33.2701 44.3896L28.0637 44.7089V37.2624L28.3045 36.8038L27.582 36.8309V45.2423L33.0971 44.8211C33.3074 44.9467 33.5143 45.0317 33.7144 45.0928C33.9077 45.1438 34.1011 45.1811 34.2808 45.1811C34.4606 45.1811 34.637 45.1438 34.8167 45.0928C35.0101 45.0317 35.1932 44.9467 35.3764 44.8211L40.8575 45.2423V36.7732L40.0401 36.7324V36.7358Z" fill="white"/>
<path d="M33.3649 44.0023C33.5108 44.1857 33.7211 44.3114 34.0501 44.3895C33.9924 43.8358 33.7821 43.4451 33.4327 43.2141C33.0664 42.9763 32.5 42.8574 31.7301 42.8574C31.3604 42.8574 30.9805 42.8846 30.5701 42.9424C30.1631 42.9831 29.7153 43.0579 29.2507 43.1598L28.6401 44.3895L33.3649 44.0023Z" fill="white"/>
<path d="M31.659 42.538C32.775 42.538 33.572 42.8063 34.0638 43.3465V37.3131C34.0638 36.7051 33.8739 36.2532 33.4872 35.9577C33.1175 35.6519 32.5511 35.5059 31.7947 35.5059C31.4114 35.5059 31.0078 35.5296 30.5974 35.5806C30.1904 35.6417 29.763 35.7165 29.3323 35.8286V42.8097C29.8309 42.7146 30.282 42.6467 30.6653 42.6127C31.0485 42.5685 31.3809 42.5414 31.6523 42.5414" fill="white"/>
<path d="M29.0198 36.1592L28.3855 37.3278V44.0881L29.0198 42.8482V36.1592Z" fill="white"/>
<path d="M36.6692 42.8545C35.1395 42.8545 34.3865 43.3607 34.3865 44.39C34.6985 44.3356 34.9326 44.1998 35.1055 43.9993L39.8575 44.39L39.23 43.1738C38.7382 43.0685 38.2633 42.9802 37.8393 42.9394C37.412 42.8851 37.0185 42.8545 36.6725 42.8545" fill="white"/>
<path d="M40.04 37.3954L39.4023 36.1895V42.8479L40.04 44.0641V37.3954Z" fill="white"/>
<path d="M36.7092 42.5384C37.0993 42.5384 37.4995 42.5656 37.893 42.6098C38.2932 42.6472 38.69 42.7253 39.0835 42.8204V35.8121C38.612 35.7102 38.1745 35.632 37.7742 35.5777C37.3774 35.5267 37.0111 35.5029 36.6787 35.5029C35.8816 35.5029 35.2745 35.6626 34.8573 35.9921C34.5385 36.2537 34.3655 36.6987 34.3655 37.3272V43.364C34.664 43.048 34.9862 42.8374 35.3288 42.7219C35.6611 42.5996 36.1258 42.5384 36.7126 42.5384" fill="white"/>
<path d="M21.1719 0.0130062C21.1719 0.0130062 16.6812 -0.197617 11.0033 1.07632C3.00204 2.87341 0.00708008 5.31597 0.00708008 5.31597V26.6637H21.1719V0.0130062Z" fill="#21409A"/>
<path d="M19.6119 2.00041C19.6119 2.00041 15.752 1.82036 10.8712 2.90745C3.99603 4.44296 1.42505 6.52882 1.42505 6.52882V25.1486H19.6119V2.00041Z" fill="white"/>
<path d="M10.704 11.8857C8.90298 11.8857 7.43433 13.3499 7.43433 15.1402C7.43433 16.9305 8.90298 18.4049 10.704 18.4049C12.5051 18.4049 13.9534 16.9407 13.9534 15.1402C13.9534 13.3397 12.4915 11.8857 10.704 11.8857ZM10.704 17.8342C9.21502 17.8342 8.01093 16.6214 8.01093 15.1402C8.01093 13.6591 9.21502 12.4599 10.704 12.4599C12.193 12.4599 13.3768 13.6625 13.3768 15.1402C13.3768 16.618 12.1761 17.8342 10.704 17.8342Z" fill="#21409A"/>
<path d="M17.1316 16.6281V13.6624H15.8529C15.7478 13.2684 15.5816 12.8981 15.3917 12.538L16.2973 11.6275L14.2147 9.53148L13.2955 10.4385C12.9462 10.2415 12.5663 10.0886 12.1796 9.97991V8.69238H9.22197V9.97991C8.83191 10.0886 8.45203 10.2415 8.09589 10.4385L7.19028 9.53148L5.09076 11.6275L5.99976 12.538C5.80643 12.8981 5.6504 13.2684 5.53508 13.6624H4.25977V16.6281H5.53508C5.6504 17.0154 5.80982 17.3891 5.99976 17.7492L5.09076 18.6562L7.19028 20.7489L8.09589 19.8419C8.44864 20.0457 8.82174 20.1986 9.22197 20.3107V21.5982H12.1796V20.3107C12.5731 20.1986 12.9529 20.0457 13.2955 19.8419L14.2147 20.7489L16.2973 18.6562L15.3917 17.7492C15.585 17.3925 15.7478 17.0154 15.8529 16.6281H17.1316ZM15.3577 16.2646C15.239 16.7572 15.0559 17.2192 14.7913 17.6439L14.676 17.8375L15.49 18.6528L14.2147 19.937L13.3939 19.1183L13.1904 19.2406C12.7766 19.4919 12.3119 19.6856 11.8269 19.8011L11.6064 19.8622V21.0139H9.79518V19.8622L9.57132 19.8011C9.07951 19.6856 8.61823 19.4885 8.19764 19.2406L8.00092 19.1183L7.18689 19.937L5.90479 18.6528L6.72221 17.8341L6.60011 17.6439C6.34233 17.2192 6.149 16.7572 6.03707 16.2646L5.97602 16.0472H4.82959V14.2297H5.97602L6.03707 14.0123C6.14561 13.5265 6.34233 13.0611 6.60011 12.6399L6.72221 12.4428L5.90479 11.6241L7.18689 10.3502L8.00092 11.1587L8.19764 11.05C8.62162 10.785 9.0863 10.588 9.57132 10.4759L9.79518 10.4249V9.2665H11.6064V10.4249L11.8269 10.4759C12.3085 10.588 12.7698 10.785 13.1904 11.05L13.3939 11.1587L14.2147 10.3502L15.49 11.6241L14.676 12.4428L14.7913 12.6399C15.0559 13.0645 15.239 13.5265 15.3577 14.0123L15.412 14.2297H16.5652V16.0472H15.412L15.3577 16.2646Z" fill="#21409A"/>
</svg>
