<svg width="354" height="479" viewBox="0 0 354 479" fill="none" xmlns="http://www.w3.org/2000/svg">
<path d="M270.156 1.25988L346.511 45.077C348.882 46.4385 350.767 48.4065 352.062 50.7106C353.297 52.9052 353.998 55.4041 353.998 58.0078V113.584C353.998 123.59 342.673 132.102 331.487 125.706L318.219 118.122L317.019 120.065C316.968 120.148 316.89 120.185 316.824 120.241L316.834 120.268C316.79 120.297 316.734 120.331 316.688 120.363C316.673 120.37 316.663 120.38 316.651 120.387C314.467 121.834 310.627 123.894 309.763 124.34L309.782 124.284C309.385 124.396 308.925 124.233 308.767 123.785L303.882 109.931L255.145 82.0719C250.502 79.4171 247.636 74.4776 247.636 69.1289V13.3772C247.638 2.62384 263.468 -2.57868 270.156 1.25988Z" fill="#774EA7"/>
<path opacity="0.2" d="M317.018 120.065C316.967 120.148 316.889 120.185 316.824 120.241L316.833 120.268C316.789 120.297 316.733 120.331 316.687 120.363C316.673 120.37 316.663 120.38 316.651 120.387C314.467 121.834 310.627 123.894 309.762 124.34L309.782 124.284C309.969 124.23 310.145 124.135 310.261 123.945L314.992 116.28L314.057 115.745L318.219 118.124L317.018 120.065Z" fill="white"/>
<path opacity="0.4" d="M337.24 59.1308C336.273 57.2164 334.939 55.4944 333.249 54.1305C333.249 54.1305 333.242 54.1256 333.24 54.1207C332.677 53.6652 332.073 53.2512 331.43 52.8834L255.076 9.06626C251.765 7.16647 247.637 9.55827 247.637 13.3774C247.637 2.62401 263.467 -2.58094 270.156 1.25762L346.51 45.0747C348.882 46.4363 350.766 48.4043 352.062 50.7084L337.24 59.1308Z" fill="white"/>
<path opacity="0.2" d="M338.918 121.393V65.8168C338.918 65.2225 338.877 64.633 338.801 64.0558C338.572 62.3241 338.015 60.6702 337.24 59.1334L352.064 50.7109C353.299 52.9054 354 55.4044 354 58.0081V113.584C354 123.59 342.675 132.103 331.489 125.707C334.798 127.599 338.918 125.207 338.918 121.393Z" fill="white"/>
<path d="M328.062 61.8317C329.435 62.4951 330.33 63.4841 330.423 64.6418C330.608 66.9583 327.507 69.0809 323.505 69.3776L267.518 73.5303C265.516 73.6786 263.661 73.3507 262.277 72.682C260.908 72.0209 260.024 71.0295 259.931 69.8688L258.83 56.0149C258.645 53.6983 261.746 51.5757 265.748 51.2791C267.749 51.1308 269.599 51.467 270.974 52.1293C272.348 52.7928 273.243 53.7817 273.336 54.9394L274.104 64.5849L322.84 60.9808C324.838 60.832 326.689 61.1682 328.062 61.8317Z" fill="white"/>
<path d="M284.646 295.633L284.57 295.588C284.593 295.602 284.622 295.607 284.646 295.619V295.633Z" fill="#455A64"/>
<path d="M193.951 211.929L193.425 330.525L286.703 384.394L287.229 265.8L193.951 211.929Z" fill="#455A64"/>
<g opacity="0.1">
<path d="M193.951 211.929L193.425 330.525L286.703 384.394L287.229 265.8L193.951 211.929Z" fill="black"/>
</g>
<path d="M331.058 240.411L287.229 265.8L286.703 384.394L330.532 359.005L331.058 240.411Z" fill="#455A64"/>
<path opacity="0.3" d="M331.058 240.411L287.229 265.8L286.703 384.394L330.532 359.005L331.058 240.411Z" fill="black"/>
<path d="M287.229 265.8L193.952 211.929L218.676 139.023L311.953 192.892L287.229 265.8Z" fill="#455A64"/>
<path d="M228.47 158.742L297.215 198.443L281.544 244.652L212.798 204.951L228.47 158.742Z" fill="#BA68C8"/>
<path opacity="0.2" d="M228.47 158.742L297.215 198.443L281.544 244.652L212.798 204.951L228.47 158.742Z" fill="black"/>
<path opacity="0.2" d="M228.47 158.742L297.215 198.443L281.544 244.652L212.798 204.951L228.47 158.742Z" fill="white"/>
<path d="M212.799 204.948V204.951L281.544 244.652L280.468 247.833L208.689 206.38L212.799 204.948Z" fill="#455A64"/>
<path d="M225.438 156.991L228.47 158.742L212.799 204.948L208.688 206.381L225.438 156.991Z" fill="#455A64"/>
<path opacity="0.1" d="M212.799 204.948V204.951L281.544 244.652L280.468 247.833L208.689 206.38L212.799 204.948Z" fill="black"/>
<path opacity="0.4" d="M225.438 156.991L228.47 158.742L212.799 204.948L208.688 206.381L225.438 156.991Z" fill="black"/>
<path d="M311.953 192.892L331.058 181.729V240.411L287.229 265.8L311.953 192.892Z" fill="#455A64"/>
<path opacity="0.3" d="M311.953 192.892L331.058 181.729V240.411L287.229 265.8L311.953 192.892Z" fill="black"/>
<path d="M218.676 139.023L237.922 128.226L331.058 181.729L311.953 192.892L218.676 139.023Z" fill="#455A64"/>
<path opacity="0.1" d="M218.676 139.023L237.922 128.226L331.058 181.729L311.953 192.892L218.676 139.023Z" fill="white"/>
<path d="M235.341 268.448H235.338L235.346 268.446L235.341 268.448Z" fill="#455A64"/>
<path d="M235.806 265.055C235.808 264.079 235.124 262.907 234.274 262.417L228.991 259.366C228.601 259.141 228.253 259.12 227.983 259.239L227.97 259.224L229.989 258.067L229.996 258.077C230.276 257.894 230.666 257.899 231.107 258.155L236.39 261.207C237.243 261.699 237.924 262.868 237.922 263.845L237.915 266.258C237.915 266.731 237.744 267.062 237.474 267.223L237.476 267.225L237.464 267.233L237.459 267.235L235.346 268.443C235.623 268.287 235.796 267.949 235.799 267.467L235.806 265.055Z" fill="#37474F"/>
<path d="M227.462 260.237C227.464 259.714 227.669 259.38 227.98 259.241C228.251 259.119 228.601 259.141 228.988 259.368L234.272 262.42C235.122 262.912 235.806 264.081 235.804 265.058L235.796 267.471C235.796 267.951 235.624 268.29 235.344 268.448L235.336 268.45C235.059 268.604 234.676 268.58 234.253 268.336L228.969 265.284C228.131 264.802 227.447 263.616 227.45 262.654L227.462 260.237Z" fill="#455A64"/>
<path d="M221.622 260.501V260.498L221.63 260.496L221.622 260.501Z" fill="#455A64"/>
<path d="M222.09 257.105C222.092 256.126 221.408 254.957 220.558 254.467L215.274 251.416C214.885 251.192 214.536 251.17 214.266 251.291L214.254 251.277L216.273 250.12L216.28 250.13C216.56 249.947 216.949 249.952 217.388 250.205L222.672 253.257C223.524 253.749 224.206 254.918 224.203 255.895L224.196 258.308C224.193 258.781 224.025 259.11 223.755 259.273L223.758 259.275L223.745 259.283L223.74 259.285L221.627 260.493C221.907 260.337 222.077 259.999 222.08 259.517L222.09 257.105Z" fill="#37474F"/>
<path d="M213.743 252.287C213.745 251.764 213.95 251.43 214.262 251.291C214.532 251.169 214.882 251.191 215.27 251.415L220.553 254.467C221.406 254.959 222.087 256.128 222.085 257.105L222.078 259.519C222.075 260.001 221.905 260.34 221.625 260.495H221.617C221.34 260.649 220.958 260.625 220.534 260.381L215.25 257.329C214.412 256.844 213.728 255.661 213.731 254.699L213.743 252.287Z" fill="#455A64"/>
<path d="M207.904 252.552V252.548H207.911L207.904 252.552Z" fill="#455A64"/>
<path d="M208.371 249.158C208.374 248.179 207.69 247.01 206.84 246.52L201.556 243.468C201.166 243.244 200.818 243.222 200.548 243.344L200.536 243.329L202.554 242.172L202.562 242.182C202.842 241.999 203.231 242.004 203.672 242.26L208.956 245.312C209.808 245.804 210.49 246.973 210.487 247.95L210.48 250.363C210.478 250.836 210.31 251.165 210.039 251.325L210.042 251.328L210.03 251.335L210.025 251.338L207.911 252.546C208.191 252.39 208.364 252.051 208.364 251.569L208.371 249.158Z" fill="#37474F"/>
<path d="M200.027 244.338C200.03 243.814 200.234 243.48 200.546 243.342C200.816 243.22 201.167 243.242 201.554 243.466L206.838 246.518C207.69 247.01 208.372 248.179 208.369 249.155L208.362 251.569C208.359 252.051 208.187 252.387 207.909 252.546L207.902 252.548C207.624 252.702 207.242 252.677 206.818 252.434L201.534 249.382C200.697 248.897 200.012 247.713 200.015 246.751L200.027 244.338Z" fill="#455A64"/>
<path d="M235.341 282.302L235.338 282.299H235.346L235.341 282.302Z" fill="#455A64"/>
<path d="M235.806 278.906C235.808 277.93 235.124 276.758 234.274 276.269L228.991 273.217C228.601 272.993 228.253 272.971 227.983 273.09L227.97 273.076L229.989 271.919L229.996 271.928C230.276 271.746 230.666 271.753 231.107 272.006L236.39 275.058C237.243 275.55 237.924 276.719 237.922 277.696L237.915 280.11C237.915 280.582 237.744 280.911 237.474 281.074L237.476 281.077L237.464 281.084L237.459 281.086L235.346 282.294C235.623 282.139 235.796 281.8 235.799 281.318L235.806 278.906Z" fill="#37474F"/>
<path d="M227.462 274.089C227.464 273.565 227.669 273.231 227.98 273.092C228.251 272.971 228.601 272.992 228.988 273.219L234.272 276.271C235.122 276.763 235.806 277.932 235.804 278.909L235.796 281.322C235.796 281.805 235.624 282.141 235.344 282.299L235.336 282.301C235.059 282.455 234.676 282.431 234.253 282.187L228.969 279.135C228.131 278.65 227.447 277.467 227.45 276.505L227.462 274.089Z" fill="#455A64"/>
<path d="M221.622 274.352V274.35H221.63L221.622 274.352Z" fill="#455A64"/>
<path d="M222.09 270.959C222.092 269.98 221.408 268.811 220.558 268.321L215.274 265.27C214.885 265.046 214.536 265.024 214.266 265.145L214.254 265.131L216.273 263.974L216.28 263.984C216.56 263.801 216.949 263.806 217.388 264.059L222.672 267.111C223.524 267.603 224.206 268.772 224.203 269.749L224.196 272.162C224.193 272.635 224.025 272.966 223.755 273.125L223.758 273.129L223.745 273.137L223.74 273.139L221.627 274.347C221.907 274.191 222.077 273.853 222.08 273.371L222.09 270.959Z" fill="#37474F"/>
<path d="M213.743 266.139C213.745 265.615 213.95 265.282 214.262 265.143C214.532 265.021 214.882 265.043 215.27 265.267L220.553 268.319C221.406 268.811 222.087 269.98 222.085 270.957L222.078 273.37C222.075 273.85 221.905 274.189 221.625 274.347H221.617C221.34 274.501 220.958 274.476 220.534 274.233L215.25 271.181C214.412 270.696 213.728 269.512 213.731 268.55L213.743 266.139Z" fill="#455A64"/>
<path d="M207.904 266.404V266.4H207.911L207.904 266.404Z" fill="#455A64"/>
<path d="M208.371 263.009C208.374 262.03 207.69 260.861 206.84 260.371L201.556 257.32C201.166 257.096 200.818 257.074 200.548 257.195L200.536 257.181L202.554 256.024L202.562 256.034C202.842 255.851 203.231 255.856 203.672 256.112L208.956 259.163C209.808 259.655 210.49 260.825 210.487 261.801L210.48 264.215C210.478 264.687 210.31 265.016 210.039 265.177L210.042 265.182L210.03 265.189L210.025 265.192L207.911 266.4C208.191 266.244 208.364 265.905 208.364 265.423L208.371 263.009Z" fill="#37474F"/>
<path d="M200.027 258.189C200.03 257.666 200.234 257.332 200.546 257.193C200.816 257.071 201.167 257.093 201.554 257.317L206.838 260.369C207.69 260.861 208.372 262.03 208.369 263.007L208.362 265.421C208.359 265.903 208.187 266.239 207.909 266.397H207.902C207.624 266.551 207.242 266.526 206.818 266.283L201.534 263.231C200.697 262.746 200.012 261.563 200.015 260.601L200.027 258.189Z" fill="#455A64"/>
<path d="M235.341 296.153L235.338 296.151H235.346L235.341 296.153Z" fill="#455A64"/>
<path d="M235.806 292.761C235.808 291.781 235.124 290.612 234.274 290.123L228.991 287.071C228.601 286.847 228.253 286.825 227.983 286.947L227.97 286.932L229.989 285.775L229.996 285.785C230.276 285.602 230.666 285.607 231.107 285.86L236.39 288.912C237.243 289.404 237.924 290.573 237.922 291.55L237.915 293.964C237.915 294.436 237.744 294.767 237.474 294.928L237.476 294.931L237.464 294.938L237.459 294.94L235.346 296.148C235.623 295.993 235.796 295.654 235.799 295.172L235.806 292.761Z" fill="#37474F"/>
<path d="M227.462 287.94C227.464 287.417 227.669 287.083 227.98 286.944C228.251 286.822 228.601 286.844 228.988 287.068L234.272 290.12C235.122 290.612 235.806 291.781 235.804 292.758L235.796 295.172C235.796 295.651 235.624 295.99 235.344 296.148L235.336 296.151C235.059 296.304 234.676 296.28 234.253 296.036L228.969 292.984C228.131 292.5 227.447 291.316 227.45 290.354L227.462 287.94Z" fill="#455A64"/>
<path d="M221.622 288.204V288.201H221.63L221.622 288.204Z" fill="#455A64"/>
<path d="M222.09 284.811C222.092 283.831 221.408 282.662 220.558 282.173L215.274 279.121C214.885 278.897 214.536 278.875 214.266 278.997L214.254 278.982L216.273 277.825L216.28 277.835C216.56 277.652 216.949 277.657 217.388 277.913L222.672 280.965C223.524 281.457 224.206 282.626 224.203 283.603L224.196 286.016C224.193 286.489 224.025 286.818 223.755 286.978L223.758 286.983L223.745 286.99L223.74 286.993L221.627 288.201C221.907 288.045 222.077 287.707 222.08 287.224L222.09 284.811Z" fill="#37474F"/>
<path d="M213.743 279.991C213.745 279.467 213.95 279.133 214.262 278.994C214.532 278.873 214.882 278.895 215.27 279.119L220.553 282.17C221.406 282.662 222.087 283.832 222.085 284.808L222.078 287.222C222.075 287.702 221.905 288.04 221.625 288.199L221.617 288.201C221.34 288.354 220.958 288.33 220.534 288.087L215.25 285.035C214.412 284.552 213.728 283.366 213.731 282.404L213.743 279.991Z" fill="#455A64"/>
<path d="M207.904 280.255L207.911 280.251L207.904 280.255Z" fill="#455A64"/>
<path d="M208.371 276.861C208.374 275.881 207.69 274.712 206.84 274.223L201.556 271.171C201.166 270.947 200.818 270.925 200.548 271.047L200.536 271.032L202.554 269.875L202.562 269.885C202.842 269.702 203.231 269.707 203.672 269.96L208.956 273.012C209.808 273.504 210.49 274.673 210.487 275.65L210.48 278.064C210.478 278.536 210.31 278.865 210.039 279.026L210.042 279.031L210.03 279.038L210.025 279.041L207.911 280.249C208.191 280.09 208.364 279.754 208.364 279.272L208.371 276.861Z" fill="#37474F"/>
<path d="M200.027 272.043C200.03 271.519 200.234 271.185 200.546 271.047C200.816 270.925 201.167 270.947 201.554 271.171L206.838 274.223C207.69 274.715 208.372 275.884 208.369 276.86L208.362 279.274C208.359 279.754 208.187 280.093 207.909 280.251H207.902C207.624 280.404 207.242 280.38 206.818 280.136L201.534 277.085C200.697 276.6 200.012 275.416 200.015 274.454L200.027 272.043Z" fill="#455A64"/>
<path d="M235.341 310.005H235.338L235.346 310.002L235.341 310.005Z" fill="#455A64"/>
<path d="M235.806 306.612C235.808 305.633 235.124 304.464 234.274 303.974L228.991 300.922C228.601 300.698 228.253 300.676 227.983 300.798L227.97 300.784L229.989 299.627L229.996 299.636C230.276 299.454 230.666 299.459 231.107 299.712L236.39 302.764C237.243 303.256 237.924 304.425 237.922 305.402L237.915 307.815C237.915 308.288 237.744 308.617 237.474 308.777L237.476 308.78L237.464 308.787L237.459 308.79L235.346 309.998C235.623 309.842 235.796 309.503 235.799 309.021L235.806 306.612Z" fill="#37474F"/>
<path d="M227.462 301.792C227.464 301.268 227.669 300.934 227.98 300.796C228.251 300.674 228.601 300.696 228.988 300.92L234.272 303.972C235.122 304.464 235.806 305.633 235.804 306.61L235.796 309.023C235.796 309.503 235.624 309.842 235.344 310L235.336 310.002C235.059 310.156 234.676 310.131 234.253 309.888L228.969 306.836C228.131 306.351 227.447 305.168 227.45 304.206L227.462 301.792Z" fill="#455A64"/>
<path d="M221.622 302.055L221.63 302.053L221.622 302.055Z" fill="#455A64"/>
<path d="M222.09 298.662C222.092 297.683 221.408 296.514 220.558 296.024L215.274 292.972C214.885 292.748 214.536 292.726 214.266 292.848L214.254 292.834L216.273 291.677L216.28 291.686C216.56 291.504 216.949 291.509 217.388 291.764L222.672 294.816C223.524 295.308 224.206 296.477 224.203 297.454L224.196 299.868C224.193 300.34 224.025 300.669 223.755 300.832L223.758 300.835L223.745 300.842L223.74 300.844L221.627 302.053C221.907 301.897 222.077 301.558 222.08 301.076L222.09 298.662Z" fill="#37474F"/>
<path d="M213.743 293.845C213.745 293.321 213.95 292.987 214.262 292.848C214.532 292.727 214.882 292.748 215.27 292.973L220.553 296.024C221.406 296.516 222.087 297.686 222.085 298.662L222.078 301.076C222.075 301.558 221.905 301.894 221.625 302.053H221.617C221.34 302.206 220.958 302.182 220.534 301.938L215.25 298.886C214.412 298.402 213.728 297.218 213.731 296.256L213.743 293.845Z" fill="#455A64"/>
<path d="M207.904 294.109V294.105H207.911L207.904 294.109Z" fill="#455A64"/>
<path d="M208.371 290.715C208.374 289.735 207.69 288.566 206.84 288.077L201.556 285.025C201.166 284.801 200.818 284.779 200.548 284.898L200.536 284.884L202.554 283.727L202.562 283.737C202.842 283.554 203.231 283.559 203.672 283.812L208.956 286.864C209.808 287.356 210.49 288.525 210.487 289.502L210.48 291.915C210.478 292.388 210.31 292.717 210.039 292.877L210.042 292.882L210.03 292.89L210.025 292.892L207.911 294.1C208.191 293.944 208.364 293.606 208.364 293.123L208.371 290.715Z" fill="#37474F"/>
<path d="M200.027 285.895C200.03 285.371 200.234 285.037 200.546 284.898C200.816 284.777 201.167 284.799 201.554 285.025L206.838 288.077C207.69 288.569 208.372 289.738 208.369 290.715L208.362 293.129C208.359 293.608 208.187 293.947 207.909 294.105H207.902C207.624 294.259 207.242 294.234 206.818 293.991L201.534 290.939C200.697 290.454 200.012 289.27 200.015 288.308L200.027 285.895Z" fill="#455A64"/>
<g opacity="0.2">
<path d="M227.981 259.239L227.968 259.224L229.987 258.067L229.994 258.077C230.274 257.894 230.664 257.899 231.105 258.152L236.388 261.204C237.241 261.696 237.922 262.865 237.92 263.842L237.913 266.256C237.913 266.728 237.742 267.059 237.472 267.22L237.474 267.223L237.462 267.23L237.457 267.232L235.344 268.44L235.339 268.443L235.336 268.44C235.059 268.594 234.677 268.57 234.253 268.326L228.969 265.274C228.132 264.792 227.447 263.606 227.45 262.644L227.457 260.23C227.462 259.714 227.669 259.377 227.981 259.239Z" fill="white"/>
<path d="M214.264 251.289L214.252 251.274L216.271 250.117L216.278 250.127C216.558 249.944 216.947 249.952 217.386 250.205L222.67 253.257C223.522 253.749 224.204 254.918 224.201 255.895L224.194 258.308C224.191 258.781 224.023 259.11 223.753 259.273L223.756 259.275L223.743 259.283C223.741 259.283 223.741 259.285 223.739 259.285L221.625 260.493L221.62 260.496C221.343 260.649 220.96 260.622 220.537 260.379L215.253 257.327C214.415 256.842 213.731 255.658 213.733 254.696L213.741 252.283C213.746 251.764 213.953 251.43 214.264 251.289Z" fill="white"/>
<path d="M210.042 251.323L210.045 251.325L210.032 251.333L210.028 251.335L207.914 252.543L207.909 252.546L207.907 252.543C207.629 252.697 207.247 252.672 206.823 252.429L201.539 249.377C200.702 248.892 200.018 247.709 200.02 246.746L200.027 244.333C200.03 243.809 200.234 243.475 200.546 243.337L200.534 243.322L202.552 242.165L202.56 242.175C202.84 241.992 203.229 241.997 203.67 242.253L208.954 245.305C209.806 245.797 210.488 246.966 210.485 247.942L210.478 250.356C210.48 250.833 210.31 251.162 210.042 251.323Z" fill="white"/>
<path d="M227.981 273.093L227.968 273.078L229.987 271.921L229.994 271.931C230.274 271.748 230.664 271.755 231.105 272.009L236.388 275.061C237.241 275.553 237.922 276.722 237.92 277.698L237.913 280.112C237.913 280.585 237.742 280.913 237.472 281.077L237.474 281.079L237.462 281.086L237.457 281.089L235.344 282.297L235.339 282.299L235.336 282.297C235.059 282.45 234.677 282.426 234.253 282.182L228.969 279.131C228.132 278.646 227.447 277.462 227.45 276.5L227.457 274.086C227.462 273.565 227.669 273.231 227.981 273.093Z" fill="white"/>
<path d="M214.264 265.143L214.252 265.128L216.271 263.971L216.278 263.981C216.558 263.798 216.947 263.803 217.386 264.057L222.67 267.109C223.522 267.601 224.204 268.77 224.201 269.746L224.194 272.16C224.191 272.633 224.023 272.964 223.753 273.122L223.756 273.127L223.743 273.134L223.739 273.137L221.625 274.345L221.62 274.347V274.345C221.343 274.498 220.96 274.474 220.537 274.23L215.253 271.178C214.415 270.694 213.731 269.51 213.733 268.548L213.741 266.134C213.746 265.615 213.953 265.282 214.264 265.143Z" fill="white"/>
<path d="M200.549 257.193L200.537 257.178L202.555 256.021L202.563 256.031C202.843 255.849 203.232 255.853 203.673 256.109L208.957 259.161C209.809 259.653 210.491 260.822 210.488 261.799L210.481 264.213C210.479 264.685 210.311 265.014 210.04 265.175L210.043 265.179L210.031 265.187L210.026 265.189L207.912 266.397L207.907 266.4L207.905 266.397C207.627 266.551 207.245 266.526 206.821 266.283L201.537 263.231C200.7 262.746 200.016 261.563 200.018 260.6L200.025 258.187C200.03 257.666 200.237 257.332 200.549 257.193Z" fill="white"/>
<path d="M227.981 286.944L227.968 286.93L229.987 285.773L229.994 285.782C230.274 285.6 230.664 285.605 231.105 285.858L236.388 288.91C237.241 289.402 237.922 290.571 237.92 291.55L237.913 293.964C237.913 294.436 237.742 294.765 237.472 294.926L237.474 294.928L237.462 294.936L237.457 294.938L235.344 296.146L235.339 296.148L235.336 296.146C235.059 296.299 234.677 296.275 234.253 296.032L228.969 292.98C228.132 292.495 227.447 291.311 227.45 290.349L227.457 287.936C227.462 287.417 227.669 287.083 227.981 286.944Z" fill="white"/>
<path d="M214.264 278.994L214.252 278.98L216.271 277.823L216.278 277.832C216.558 277.65 216.947 277.655 217.386 277.91L222.67 280.962C223.522 281.454 224.204 282.623 224.201 283.6L224.194 286.014C224.191 286.486 224.023 286.815 223.753 286.976L223.756 286.981L223.743 286.988C223.741 286.99 223.741 286.99 223.739 286.99L221.625 288.199L221.62 288.201C221.343 288.354 220.96 288.328 220.537 288.084L215.253 285.032C214.415 284.55 213.731 283.364 213.733 282.402L213.741 279.988C213.746 279.467 213.953 279.133 214.264 278.994Z" fill="white"/>
<path d="M200.549 271.044L200.537 271.03L202.555 269.873L202.563 269.882C202.843 269.7 203.232 269.705 203.673 269.958L208.957 273.01C209.809 273.502 210.491 274.671 210.488 275.648L210.481 278.061C210.479 278.534 210.311 278.863 210.04 279.023L210.043 279.028L210.031 279.036L210.026 279.038L207.912 280.246L207.907 280.249L207.905 280.246C207.627 280.4 207.245 280.375 206.821 280.132L201.537 277.08C200.7 276.595 200.016 275.411 200.018 274.449L200.025 272.036C200.03 271.519 200.237 271.186 200.549 271.044Z" fill="white"/>
<path d="M227.981 300.796L227.968 300.781L229.987 299.624L229.994 299.634C230.274 299.451 230.664 299.459 231.105 299.712L236.388 302.764C237.241 303.256 237.922 304.425 237.92 305.402L237.913 307.815C237.913 308.288 237.742 308.617 237.472 308.78L237.474 308.782L237.462 308.789L237.457 308.792L235.344 310L235.339 310.002L235.336 310C235.059 310.153 234.677 310.129 234.253 309.885L228.969 306.834C228.132 306.349 227.447 305.165 227.45 304.203L227.457 301.789C227.462 301.271 227.669 300.935 227.981 300.796Z" fill="white"/>
<path d="M214.264 292.846L214.252 292.831L216.271 291.674L216.278 291.684C216.558 291.501 216.947 291.506 217.386 291.762L222.67 294.814C223.522 295.306 224.204 296.475 224.201 297.452L224.194 299.865C224.191 300.338 224.023 300.669 223.753 300.827L223.756 300.83L223.743 300.837C223.741 300.837 223.741 300.84 223.739 300.84L221.625 302.048L221.62 302.05C221.343 302.204 220.96 302.177 220.537 301.933L215.253 298.881C214.415 298.397 213.731 297.213 213.733 296.251L213.741 293.837C213.746 293.321 213.953 292.987 214.264 292.846Z" fill="white"/>
<path d="M200.549 284.898L200.537 284.884L202.555 283.727L202.563 283.736C202.843 283.554 203.232 283.561 203.673 283.814L208.957 286.866C209.809 287.358 210.491 288.527 210.488 289.504L210.481 291.918C210.479 292.39 210.311 292.719 210.04 292.88L210.043 292.885L210.031 292.892L210.026 292.894L207.912 294.103L207.907 294.105L207.905 294.103C207.627 294.256 207.245 294.232 206.821 293.988L201.537 290.936C200.7 290.451 200.016 289.268 200.018 288.306L200.025 285.892C200.03 285.371 200.237 285.037 200.549 284.898Z" fill="white"/>
</g>
<path d="M259.401 289.814L261.151 288.795L257.273 291.007L255.522 292.023L259.401 289.814Z" fill="#455A64"/>
<path d="M259.4 289.813L266.206 293.742L270.058 300.418L255.521 292.023L259.4 289.813Z" fill="#455A64"/>
<path d="M259.4 289.814L261.151 288.795L267.954 292.727L266.206 293.742L259.4 289.814Z" fill="#263238"/>
<path d="M267.954 292.727L271.809 299.403L270.058 300.418L266.206 293.742L267.954 292.727Z" fill="#37474F"/>
<path d="M260.55 279.883L260.525 287.714L258.777 288.732L258.799 280.901L260.55 279.883Z" fill="#263238"/>
<path d="M254.947 274.225L258.799 280.901L258.777 288.732L254.898 290.941L254.947 274.225Z" fill="#455A64"/>
<path d="M254.947 274.225L256.695 273.207L260.55 279.883L258.799 280.901L254.947 274.225Z" fill="#37474F"/>
<path d="M259.678 281.71L261.426 280.692L267.726 284.328L265.975 285.346L259.678 281.71Z" fill="#37474F"/>
<path d="M259.678 281.71L265.975 285.346L265.955 292.575L259.658 288.939L259.678 281.71Z" fill="#455A64"/>
<path d="M267.726 284.328L267.704 291.56L265.955 292.575L265.975 285.346L267.726 284.328Z" fill="#263238"/>
<path d="M257.324 272.859L271.86 281.255L270.112 282.27L255.576 273.875L257.324 272.859Z" fill="#37474F"/>
<path d="M270.112 282.27L266.233 284.482L259.428 280.553L255.576 273.875L270.112 282.27Z" fill="#455A64"/>
<path d="M272.483 282.326L272.437 299.044L270.686 300.06L270.735 283.342L272.483 282.326Z" fill="#37474F"/>
<path d="M266.857 285.553L270.735 283.342L270.687 300.06L266.835 293.384L266.857 285.553Z" fill="#455A64"/>
<path d="M270.735 283.342L272.483 282.326L268.605 284.538L266.856 285.553L270.735 283.342Z" fill="#455A64"/>
<path opacity="0.2" d="M260.274 289.295L259.658 288.939L259.661 288.218L258.779 288.732L254.9 290.943L254.949 274.225L256.697 273.21L256.705 273.222L257.326 272.861L271.862 281.257L270.114 282.273L267.119 283.98L267.728 284.331L267.725 285.052L268.607 284.54L272.485 282.329L272.439 299.047L270.691 300.063L270.688 300.058L270.063 300.421L255.526 292.025L257.274 291.009L260.274 289.295ZM266.836 292.064L266.822 292.074L266.836 292.081V292.064ZM260.544 281.196V281.203L260.552 281.201L260.544 281.196Z" fill="white"/>
<path d="M283.514 382.55V312.146L243.807 289.299V359.619L283.514 382.55Z" fill="#455A64"/>
<path opacity="0.1" d="M283.514 382.55V312.146L243.807 289.299V359.619L283.514 382.55Z" fill="white"/>
<path d="M246.644 294.202L280.737 313.86V355.054L246.644 335.396V294.202Z" fill="#455A64"/>
<path opacity="0.4" d="M246.644 294.202L280.737 313.86V355.054L246.644 335.396V294.202Z" fill="black"/>
<path d="M280.737 313.86V317.204L267.896 309.8L253.393 333.664L279.047 348.458L280.737 345.677V355.054L246.644 335.396L265.181 304.89L280.737 313.86Z" fill="#37474F"/>
<path opacity="0.4" d="M280.737 313.86V317.204L267.896 309.8L253.393 333.664L279.047 348.458L280.737 345.677V355.054L246.644 335.396L265.181 304.89L280.737 313.86Z" fill="black"/>
<path d="M279.047 348.458L253.393 333.664L267.896 309.8L280.737 317.204V345.677L279.047 348.458Z" fill="#BA68C8"/>
<path opacity="0.2" d="M279.047 348.458L253.393 333.664L267.896 309.8L280.737 317.204V345.677L279.047 348.458Z" fill="black"/>
<path opacity="0.2" d="M279.047 348.458L253.393 333.664L267.896 309.8L280.737 317.204V345.677L279.047 348.458Z" fill="white"/>
<path d="M223.634 320.227L226.351 318.585C226.392 318.561 226.431 318.534 226.475 318.512L226.514 318.491L226.519 318.498C227.464 318.013 228.73 318.106 230.13 318.914C233.008 320.578 235.351 324.631 235.341 327.941C235.336 329.624 234.727 330.795 233.758 331.331L231.024 332.987C230.992 333.007 230.96 333.026 230.926 333.046L230.89 333.068L230.887 333.061C229.945 333.555 228.676 333.47 227.276 332.661C224.381 330.988 222.039 326.935 222.049 323.605C222.053 321.925 222.662 320.761 223.634 320.227Z" fill="#455A64"/>
<path opacity="0.3" d="M232.519 329.646C232.529 326.336 230.189 322.283 227.308 320.619C225.877 319.794 224.581 319.708 223.632 320.227L226.349 318.585C226.39 318.561 226.429 318.534 226.473 318.512L226.512 318.49L226.517 318.498C227.462 318.015 228.728 318.106 230.128 318.914C233.006 320.578 235.349 324.631 235.339 327.941C235.334 329.624 234.728 330.795 233.756 331.331L231.022 332.987C231.942 332.425 232.514 331.28 232.519 329.646Z" fill="black"/>
<path opacity="0.2" d="M232.519 329.646C232.529 326.336 230.189 322.283 227.308 320.619C225.877 319.794 224.581 319.708 223.632 320.227L226.349 318.585C226.39 318.561 226.429 318.534 226.473 318.512L226.512 318.49L226.517 318.498C227.462 318.015 228.728 318.106 230.128 318.914C233.006 320.578 235.349 324.631 235.339 327.941C235.334 329.624 234.728 330.795 233.756 331.331L231.022 332.987C231.942 332.425 232.514 331.28 232.519 329.646Z" fill="white"/>
<path opacity="0.15" d="M223.634 320.227C224.584 319.708 225.879 319.793 227.311 320.619C230.189 322.283 232.531 326.336 232.521 329.646C232.517 331.277 231.942 332.425 231.024 332.982C230.992 333.002 230.961 333.021 230.927 333.041C230.914 333.048 230.9 333.048 230.888 333.055C229.945 333.55 228.677 333.465 227.277 332.656C224.382 330.983 222.039 326.93 222.049 323.6C222.054 321.925 222.662 320.76 223.634 320.227Z" fill="white"/>
<path d="M201.24 307.267L203.957 305.625C203.999 305.601 204.038 305.574 204.082 305.552L204.121 305.53L204.126 305.538C205.07 305.056 206.336 305.146 207.736 305.954C210.615 307.618 212.957 311.671 212.947 314.981C212.942 316.664 212.334 317.835 211.365 318.371L208.63 320.027C208.598 320.047 208.567 320.066 208.535 320.086L208.499 320.108L208.494 320.1C207.551 320.595 206.28 320.51 204.883 319.701C201.988 318.028 199.645 313.975 199.655 310.645C199.66 308.965 200.269 307.8 201.24 307.267Z" fill="#455A64"/>
<path opacity="0.3" d="M210.128 316.688C210.137 313.378 207.797 309.325 204.917 307.662C203.485 306.836 202.19 306.751 201.24 307.27L203.957 305.628C203.999 305.604 204.038 305.577 204.082 305.555L204.121 305.533L204.126 305.54C205.07 305.058 206.336 305.148 207.736 305.957C210.615 307.62 212.957 311.673 212.947 314.983C212.942 316.666 212.334 317.838 211.365 318.374L208.63 320.03C209.548 319.467 210.123 318.32 210.128 316.688Z" fill="black"/>
<path opacity="0.2" d="M210.128 316.688C210.137 313.378 207.797 309.325 204.917 307.662C203.485 306.836 202.19 306.751 201.24 307.27L203.957 305.628C203.999 305.604 204.038 305.577 204.082 305.555L204.121 305.533L204.126 305.54C205.07 305.058 206.336 305.148 207.736 305.957C210.615 307.62 212.957 311.673 212.947 314.983C212.942 316.666 212.334 317.838 211.365 318.374L208.63 320.03C209.548 319.467 210.123 318.32 210.128 316.688Z" fill="white"/>
<path opacity="0.15" d="M201.24 307.267C202.19 306.748 203.485 306.833 204.917 307.659C207.795 309.323 210.138 313.376 210.128 316.686C210.123 318.317 209.548 319.465 208.63 320.022C208.599 320.042 208.567 320.061 208.535 320.081C208.523 320.088 208.509 320.088 208.497 320.095C207.554 320.59 206.283 320.505 204.886 319.696C201.99 318.023 199.648 313.97 199.658 310.64C199.66 308.965 200.269 307.8 201.24 307.267Z" fill="white"/>
<path opacity="0.2" d="M282.345 268.606L198.785 220.346L198.547 231.777L282.109 280.034L282.345 268.606Z" fill="white"/>
<path d="M307.872 240.633L331.009 227.271L346.836 236.502L323.699 249.864C319.932 252.039 317.612 256.06 317.612 260.41V336.21C317.612 338.056 318.601 339.554 319.986 340.382L304.524 331.348L304.549 331.336C302.966 330.569 301.785 328.991 301.785 326.979V251.177C301.785 246.829 304.103 242.808 307.872 240.633Z" fill="#455A64"/>
<path d="M317.612 336.212V260.413C317.612 256.063 319.932 252.041 323.699 249.866L346.836 236.504V327.773L324.917 340.431C323.344 341.339 321.588 341.242 320.188 340.492C320.164 340.479 320.135 340.472 320.11 340.46C320.066 340.436 320.025 340.411 319.984 340.387C318.598 339.556 317.612 338.058 317.612 336.212Z" fill="#455A64"/>
<path opacity="0.3" d="M317.612 336.212V260.413C317.612 256.063 319.932 252.041 323.699 249.866L346.836 236.504V327.773L324.917 340.431C323.344 341.339 321.588 341.242 320.188 340.492C320.164 340.479 320.135 340.472 320.11 340.46C320.066 340.436 320.025 340.411 319.984 340.387C318.598 339.556 317.612 338.058 317.612 336.212Z" fill="black"/>
<path d="M267.397 209.398C267.249 209.313 267.073 209.342 266.949 209.493C265.873 210.806 264.344 211.427 262.861 211.154C262.634 211.112 262.43 211.317 262.403 211.609C262.381 211.85 262.486 212.079 262.651 212.174C262.686 212.194 262.724 212.209 262.763 212.216C264.49 212.535 266.27 211.809 267.524 210.282C267.689 210.08 267.692 209.741 267.536 209.524C267.492 209.468 267.446 209.425 267.397 209.398Z" fill="white"/>
<path d="M266.803 212.216C266.567 212.079 266.311 212.009 266.053 212.011C265.826 212.014 265.646 212.255 265.653 212.552C265.658 212.766 265.761 212.954 265.907 213.037C265.958 213.066 266.019 213.083 266.08 213.083C266.216 213.081 266.36 213.122 266.486 213.195C266.513 213.212 266.54 213.229 266.567 213.249C266.579 213.258 266.591 213.266 266.606 213.273C266.798 213.385 267.024 213.288 267.127 213.046C267.234 212.791 267.161 212.462 266.959 212.316C266.907 212.282 266.856 212.245 266.803 212.216Z" fill="white"/>
<path d="M273.455 212.221C273.163 212.053 272.844 212.028 272.569 212.177C272.135 212.408 271.877 212.978 271.807 213.867C271.639 215.913 272.06 218.076 272.956 219.805C273.002 219.893 273.065 219.961 273.136 220C273.263 220.073 273.411 220.066 273.531 219.961C273.718 219.8 273.767 219.469 273.638 219.221C272.851 217.701 272.484 215.801 272.63 214.001C272.666 213.546 272.766 213.241 272.9 213.168C272.961 213.136 273.048 213.151 273.134 213.2C273.192 213.234 273.253 213.285 273.302 213.351C273.453 213.548 273.55 213.838 273.645 214.208C274.132 216.067 274.251 218.061 273.986 219.973C273.952 220.222 274.056 220.468 274.229 220.568C274.259 220.585 274.288 220.597 274.319 220.604C274.543 220.663 274.758 220.475 274.799 220.185C275.089 218.095 274.96 215.916 274.429 213.882C274.31 213.436 274.164 212.971 273.881 212.603C273.755 212.437 273.608 212.308 273.455 212.221Z" fill="white"/>
<path d="M264.979 218.766C264.412 218.439 263.825 218.179 263.228 217.991C263.004 217.92 262.785 218.098 262.736 218.386C262.692 218.641 262.802 218.897 262.98 219.002C263.002 219.014 263.026 219.026 263.05 219.034C263.598 219.204 264.139 219.443 264.657 219.742C265.305 220.115 265.921 220.585 266.486 221.135C266.513 221.162 266.54 221.182 266.569 221.199C266.742 221.299 266.949 221.238 267.063 221.038C267.197 220.802 267.158 220.466 266.973 220.285C266.357 219.684 265.685 219.172 264.979 218.766Z" fill="white"/>
<path d="M265.5 213.202C264.577 212.669 263.54 212.503 262.559 212.771C262.335 212.832 262.198 213.117 262.249 213.404C262.281 213.58 262.374 213.716 262.49 213.784C262.568 213.828 262.656 213.843 262.744 213.819C263.545 213.602 264.417 213.745 265.186 214.191C265.614 214.44 266.014 214.781 266.352 215.204C266.389 215.251 266.43 215.287 266.474 215.312C266.627 215.402 266.815 215.363 266.937 215.2C267.092 214.988 267.085 214.649 266.92 214.442C266.503 213.918 266.019 213.502 265.5 213.202Z" fill="white"/>
<path d="M266.481 224.355C266.284 224.241 266.05 224.336 265.95 224.584C265.845 224.845 265.923 225.171 266.125 225.312L267.246 226.102L267.275 226.121C267.472 226.233 267.701 226.136 267.803 225.89C267.908 225.629 267.83 225.305 267.628 225.161L266.508 224.372C266.5 224.365 266.491 224.36 266.481 224.355Z" fill="white"/>
<path d="M265.156 214.876C264.365 214.418 263.496 214.196 262.634 214.262C262.405 214.279 262.237 214.532 262.256 214.829C262.268 215.036 262.371 215.207 262.507 215.287C262.566 215.321 262.634 215.338 262.702 215.334C263.43 215.278 264.165 215.465 264.835 215.852C265.612 216.303 266.303 217.019 266.793 217.932C266.839 218.018 266.9 218.081 266.968 218.122C267.094 218.195 267.245 218.186 267.367 218.079C267.552 217.91 267.596 217.579 267.467 217.333C266.89 216.254 266.074 215.407 265.156 214.876Z" fill="white"/>
<path d="M264.833 216.573C264.188 216.201 263.504 215.945 262.803 215.821C262.576 215.782 262.372 215.989 262.345 216.281C262.325 216.522 262.43 216.749 262.596 216.844C262.632 216.863 262.669 216.878 262.71 216.885C263.319 216.992 263.918 217.219 264.485 217.545C265.717 218.256 266.803 219.445 267.517 220.916C267.563 221.013 267.629 221.084 267.704 221.128C267.826 221.199 267.969 221.194 268.086 221.099C268.279 220.945 268.337 220.614 268.213 220.361C267.405 218.687 266.209 217.367 264.833 216.573Z" fill="white"/>
<path d="M266.713 223.144C266.153 222.821 265.559 222.594 264.957 222.482C264.731 222.438 264.526 222.643 264.497 222.935C264.475 223.179 264.582 223.405 264.748 223.5C264.782 223.52 264.818 223.534 264.857 223.541C265.383 223.639 265.902 223.839 266.394 224.121C267.363 224.681 268.23 225.575 268.848 226.691C268.894 226.774 268.955 226.834 269.021 226.873C269.15 226.949 269.306 226.937 269.425 226.825C269.61 226.657 269.649 226.323 269.515 226.079C268.807 224.806 267.821 223.785 266.713 223.144Z" fill="white"/>
<path d="M266.62 221.381C265.719 220.86 264.767 220.485 263.793 220.275C263.566 220.227 263.357 220.426 263.325 220.719C263.296 220.962 263.403 221.196 263.574 221.293C263.605 221.313 263.639 221.325 263.676 221.332C264.582 221.527 265.466 221.876 266.303 222.36C268.027 223.356 269.559 224.925 270.696 226.908C270.74 226.988 270.801 227.046 270.864 227.083C270.995 227.158 271.151 227.144 271.273 227.029C271.456 226.856 271.49 226.52 271.353 226.282C270.126 224.143 268.478 222.453 266.62 221.381Z" fill="white"/>
<path d="M273.501 210.214C272.924 209.88 272.269 209.78 271.682 210.138C271.137 210.47 270.72 211.164 270.543 212.043C270.384 212.815 270.423 213.604 270.482 214.276C270.837 218.329 272.391 222.231 274.748 224.984C274.782 225.023 274.821 225.054 274.86 225.079C275.02 225.171 275.21 225.127 275.33 224.952C275.481 224.735 275.464 224.394 275.291 224.194C273.087 221.62 271.633 217.969 271.302 214.179C271.251 213.604 271.217 212.942 271.341 212.338C271.458 211.768 271.721 211.31 272.045 211.11C272.393 210.898 272.797 210.966 273.17 211.181C273.43 211.332 273.674 211.551 273.874 211.799C274.687 212.815 275.025 214.247 275.162 215.27C275.32 216.449 275.315 217.689 275.31 218.887C275.31 219.06 275.308 219.231 275.308 219.404C275.305 220.809 275.33 222.3 275.663 223.761C275.7 223.922 275.787 224.046 275.897 224.109C275.982 224.158 276.08 224.17 276.175 224.136C276.394 224.06 276.518 223.763 276.452 223.478C276.153 222.158 276.128 220.753 276.131 219.428C276.131 219.257 276.133 219.087 276.133 218.916C276.138 217.669 276.145 216.381 275.972 215.107C275.744 213.409 275.213 212.002 274.436 211.032C274.175 210.706 273.852 210.416 273.501 210.214Z" fill="white"/>
<path d="M274.134 208.082C273.472 207.7 272.761 207.549 272.094 207.676C270.784 207.922 269.593 209.254 269.062 211.069C268.638 212.513 268.585 214.252 268.906 216.232C269.52 220.029 271.266 223.522 273.698 225.816C273.722 225.838 273.749 225.86 273.774 225.875C273.949 225.977 274.158 225.909 274.273 225.704C274.404 225.466 274.36 225.13 274.173 224.954C271.911 222.821 270.284 219.569 269.712 216.035C269.425 214.257 269.466 212.72 269.836 211.468C270.265 210.002 271.207 208.93 272.232 208.738C272.746 208.64 273.296 208.76 273.815 209.059C274.224 209.295 274.614 209.646 274.947 210.089C275.61 210.976 276.087 212.24 276.321 213.748C276.532 215.102 276.545 216.488 276.537 218.03V218.256C276.53 219.652 276.525 221.091 276.703 222.514C276.725 222.704 276.822 222.855 276.949 222.928C277.019 222.967 277.097 222.984 277.175 222.969C277.399 222.93 277.553 222.657 277.516 222.365C277.348 221.03 277.355 219.635 277.363 218.285V218.059C277.37 216.456 277.358 215.012 277.129 213.555C276.861 211.841 276.308 210.387 275.532 209.351C275.123 208.806 274.643 208.377 274.134 208.082Z" fill="white"/>
<path d="M274.551 206.229C273.757 205.771 272.91 205.567 272.089 205.666C270.363 205.878 268.775 207.413 267.947 209.673C267.263 211.534 267.081 213.853 267.419 216.376C267.994 220.65 269.893 224.565 272.63 227.11C272.652 227.132 272.678 227.151 272.705 227.166C272.883 227.268 273.092 227.2 273.204 226.993C273.336 226.754 273.29 226.418 273.102 226.243C270.545 223.865 268.773 220.207 268.235 216.213C268.018 214.608 267.926 212.252 268.695 210.15C269.394 208.251 270.762 206.909 272.187 206.736C272.856 206.653 273.562 206.828 274.23 207.213C274.962 207.637 275.647 208.311 276.182 209.179C277.076 210.628 277.626 212.61 277.772 214.912C277.906 217.019 277.711 219.167 277.522 221.245C277.5 221.486 277.607 221.712 277.77 221.807C277.804 221.827 277.843 221.841 277.882 221.849C278.108 221.89 278.313 221.686 278.34 221.393C278.534 219.262 278.734 217.06 278.595 214.846C278.435 212.325 277.819 210.136 276.82 208.519C276.187 207.503 275.401 206.721 274.551 206.229Z" fill="white"/>
<path d="M274.945 203.967C273.873 203.348 272.717 203.158 271.65 203.475C270.214 203.898 269.099 205.131 268.017 206.322C267.793 206.57 267.56 206.828 267.328 207.07C266.233 208.227 264.613 209.474 263.121 208.853C262.902 208.762 262.673 208.916 262.607 209.198C262.546 209.459 262.648 209.739 262.841 209.849C262.855 209.856 262.87 209.866 262.887 209.871C264.367 210.484 266.04 209.824 267.859 207.905C268.095 207.657 268.332 207.396 268.563 207.143C269.568 206.032 270.608 204.885 271.85 204.517C272.731 204.256 273.718 204.429 274.633 204.958C275.22 205.297 275.777 205.784 276.26 206.397C277.333 207.764 278.1 209.751 278.475 212.141C278.816 214.323 278.816 216.6 278.816 218.805C278.816 219.026 278.921 219.219 279.07 219.304C279.121 219.333 279.174 219.35 279.23 219.353C279.459 219.357 279.644 219.124 279.644 218.829C279.647 216.571 279.647 214.24 279.289 211.951C278.88 209.345 278.032 207.162 276.837 205.64C276.267 204.921 275.624 204.359 274.945 203.967Z" fill="white"/>
<path d="M275.719 201.767C274.563 201.1 273.318 200.868 272.159 201.143C270.587 201.516 269.296 202.734 268.047 203.91C267.93 204.022 267.811 204.132 267.694 204.242C266.391 205.457 264.974 206.575 263.452 206.504C263.223 206.494 263.038 206.726 263.033 207.021C263.031 207.245 263.136 207.442 263.284 207.53C263.333 207.556 263.384 207.573 263.438 207.576C265.205 207.659 266.761 206.443 268.183 205.116C268.3 205.004 268.419 204.894 268.539 204.782C269.715 203.674 270.932 202.527 272.325 202.2C273.321 201.964 274.392 202.164 275.395 202.744C275.951 203.063 276.481 203.499 276.966 204.042C278.166 205.381 279.082 207.335 279.613 209.693C280.146 212.06 280.234 214.547 280.248 216.449C280.251 216.668 280.353 216.858 280.502 216.943C280.553 216.973 280.609 216.99 280.667 216.99C280.894 216.995 281.076 216.756 281.076 216.461C281.059 214.488 280.969 211.906 280.407 209.41C279.832 206.85 278.824 204.714 277.499 203.233C276.949 202.622 276.348 202.13 275.719 201.767Z" fill="white"/>
<path d="M275.953 199.619C274.098 198.547 271.985 198.418 270.253 199.285C269.204 199.809 268.293 200.669 267.409 201.502C266.314 202.535 265.279 203.511 264.037 203.85C263.815 203.911 263.677 204.193 263.728 204.483C263.759 204.658 263.852 204.795 263.969 204.863C264.047 204.907 264.134 204.921 264.222 204.897C265.632 204.512 266.786 203.424 267.901 202.371C268.741 201.577 269.61 200.759 270.56 200.284C272.092 199.517 273.969 199.636 275.625 200.593C275.7 200.637 275.773 200.681 275.846 200.727C277.419 201.719 278.824 203.484 279.805 205.701C280.67 207.654 281.242 209.992 281.507 212.652C281.527 212.849 281.627 213.008 281.756 213.083C281.822 213.122 281.895 213.137 281.97 213.127C282.197 213.095 282.355 212.832 282.326 212.538C282.046 209.737 281.439 207.262 280.519 205.184C279.455 202.778 277.918 200.854 276.194 199.768C276.119 199.716 276.036 199.665 275.953 199.619Z" fill="white"/>
<path d="M276.577 196.884C276.18 196.655 275.773 196.462 275.359 196.314C273.019 195.466 270.521 195.97 268.683 197.666C268.232 198.08 267.818 198.567 267.416 199.034C266.662 199.919 265.948 200.754 265.05 201.097C264.833 201.18 264.711 201.48 264.782 201.762C264.818 201.918 264.906 202.04 265.013 202.101C265.101 202.152 265.201 202.162 265.298 202.125C266.372 201.714 267.188 200.759 267.976 199.836C268.361 199.385 268.758 198.922 269.17 198.542C270.813 197.03 273.048 196.582 275.155 197.344C275.527 197.478 275.895 197.651 276.255 197.861C277.789 198.747 279.189 200.272 280.207 202.191C281.371 204.393 282.067 207.113 282.223 210.056C282.235 210.263 282.338 210.441 282.476 210.518C282.535 210.553 282.598 210.57 282.666 210.565C282.895 210.55 283.066 210.299 283.049 210.002C282.883 206.867 282.133 203.962 280.884 201.597C279.783 199.514 278.254 197.853 276.577 196.884Z" fill="white"/>
<path d="M277.984 195.215C277.068 194.687 276.065 194.336 275.018 194.195C272.912 193.905 270.65 194.414 268.295 195.702C268.086 195.814 267.993 196.131 268.086 196.404C268.13 196.533 268.208 196.63 268.303 196.686C268.403 196.745 268.522 196.752 268.631 196.694C270.857 195.476 272.983 194.994 274.95 195.262C275.914 195.393 276.832 195.715 277.667 196.194C278.805 196.852 279.786 197.809 280.511 199C281.361 200.396 281.872 202.059 282.379 204.132C282.418 204.288 282.503 204.407 282.61 204.471C282.698 204.522 282.798 204.534 282.898 204.495C283.114 204.41 283.236 204.113 283.165 203.83C282.703 201.938 282.14 199.965 281.154 198.347C280.339 197.013 279.245 195.944 277.984 195.215Z" fill="white"/>
<path d="M238.37 191.974L237.517 194.56L252.015 202.956L252.867 200.369L238.37 191.974Z" fill="white"/>
<path d="M224.039 192.614L223.185 195.208L249.55 210.455L250.402 207.861L224.039 192.614Z" fill="white"/>
<path d="M228.116 180.217L227.263 182.803L253.629 198.053L254.479 195.464L228.116 180.217Z" fill="white"/>
<path d="M229.727 175.312L228.878 177.898L255.241 193.148L256.093 190.559L229.727 175.312Z" fill="white"/>
<path d="M245.328 178.507L244.476 181.096L256.853 188.243L257.705 185.656L245.328 178.507Z" fill="white"/>
<path d="M237.413 206.195L236.56 208.789L247.936 215.361L248.791 212.767L237.413 206.195Z" fill="white"/>
<path d="M236.189 367.48C246.922 369.278 258.12 369.687 269.067 369.234C271.851 369.119 274.21 367.103 274.682 364.358C275.885 357.365 276.265 350.014 275.749 342.997C275.649 341.64 274.904 340.415 273.769 339.665C272.155 338.598 270.521 337.524 268.907 336.457C267.896 335.79 266.584 335.802 265.59 336.496C264.901 336.979 264.212 337.466 263.523 337.948C262.549 338.63 262.091 339.816 262.32 340.98C262.374 341.251 262.418 341.519 262.437 341.784C260.626 341.959 258.709 342.174 256.898 342.349C259.532 339.687 261.694 336.56 263.258 333.157C264.395 330.678 265.22 327.765 263.718 325.305C262.69 323.624 260.538 322.808 258.85 323.826C257.134 324.861 257.08 327.068 256.576 328.912C255.339 333.442 250.995 336.316 246.895 338.603C242.795 340.89 238.317 343.311 236.383 347.588C233.793 353.327 236.176 361.189 236.189 367.48Z" fill="#FFA8A7"/>
<path d="M262.437 341.787L268.714 341.529C265.266 338.094 262.437 341.787 262.437 341.787Z" fill="#F28F8F"/>
<path d="M127.399 203.045C130.045 208.004 132.692 212.963 135.339 217.92C132.984 219.515 130.63 221.113 128.273 222.708C127.866 216.349 127.805 209.402 127.399 203.045Z" fill="#F28F8F"/>
<path d="M60.8252 261.106C44.2361 247.842 30.486 272.732 20.4468 300.459C14.3547 317.284 8.09933 333.71 4.12553 344.023C1.52503 350.772 2.59398 358.361 6.94032 364.141L36.5027 403.443L49.6927 374.907L33.3227 350.075L49.9825 319.606L60.8252 261.106Z" fill="#455A64"/>
<path d="M145.509 422.721C152.493 510.925 147.255 602.814 147.255 602.814C147.255 602.814 135.068 701.365 133.286 742.788C123.356 752.613 104.257 742.788 104.257 742.788C98.8001 670.742 84.3951 642.995 100.11 598.138L88.8681 494.769L84.3951 577.732L67.3701 707.045C57.0387 714.549 43.6515 707.045 43.6515 707.045C38.1218 643.667 25.1729 614.849 43.6515 563.323C21.5351 460.709 28.8691 421.717 31.7715 411.368L145.509 422.721Z" fill="#455A64"/>
<path opacity="0.4" d="M145.509 422.721C152.493 510.925 147.255 602.814 147.255 602.814C147.255 602.814 135.068 701.365 133.286 742.788C123.356 752.613 104.257 742.788 104.257 742.788C98.8001 670.742 84.3951 642.995 100.11 598.138L88.8681 494.769L84.3951 577.732L67.3701 707.045C57.0387 714.549 43.6515 707.045 43.6515 707.045C38.1218 643.667 25.1729 614.849 43.6515 563.323C21.5351 460.709 28.8691 421.717 31.7715 411.368L145.509 422.721Z" fill="black"/>
<path opacity="0.1" d="M145.509 422.721C152.493 510.925 147.255 602.814 147.255 602.814C147.255 602.814 135.068 701.365 133.286 742.788C123.356 752.613 104.257 742.788 104.257 742.788C98.8001 670.742 84.3951 642.995 100.11 598.138L88.8681 494.769L84.3951 577.732L67.3701 707.045C57.0387 714.549 43.6515 707.045 43.6515 707.045C38.1218 643.667 25.1729 614.849 43.6515 563.323C21.5351 460.709 28.8691 421.717 31.7715 411.368L145.509 422.721Z" fill="white"/>
<path d="M60.8252 261.106C44.2361 247.842 30.486 272.732 20.4468 300.459C14.3547 317.284 8.09933 333.71 4.12553 344.023C1.52503 350.772 2.59398 358.361 6.94032 364.141L36.5027 403.443L49.6927 374.907L33.3227 350.075L49.9825 319.606L60.8252 261.106Z" fill="#8795DD"/>
<path d="M115.826 269.456C100.985 264.872 57.7943 255.436 46.8542 265.308C37.2947 273.933 31.0807 303.662 43.9688 341.841C47.6504 352.745 47.2389 364.694 42.4494 375.158C32.885 396.051 29.3933 412.676 29.3933 412.676C64.0958 448.044 125.21 442.586 148.347 427.524C148.347 384.949 141.066 343.056 141.066 343.056L115.826 269.456Z" fill="#455A64"/>
<path opacity="0.4" d="M115.826 269.456C100.985 264.872 57.7943 255.436 46.8542 265.308C37.2947 273.933 31.0807 303.662 43.9688 341.841C47.6504 352.745 47.2389 364.694 42.4494 375.158C32.885 396.051 29.3933 412.676 29.3933 412.676C64.0958 448.044 125.21 442.586 148.347 427.524C148.347 384.949 141.066 343.056 141.066 343.056L115.826 269.456Z" fill="white"/>
<path d="M115.826 269.456C100.985 264.872 57.7943 255.436 46.8542 265.308C37.2947 273.933 31.0807 303.662 43.9688 341.841C47.6504 352.745 47.2389 364.694 42.4494 375.158C32.885 396.051 29.3933 412.676 29.3933 412.676C64.0958 448.044 125.21 442.586 148.347 427.524C148.347 384.949 141.066 343.056 141.066 343.056L115.826 269.456Z" fill="#4C599D"/>
<path d="M126.208 191.313C134.314 186.366 139.227 177.435 138.363 167.975C137.498 158.517 131.47 149.824 123.201 145.158C114.932 140.489 104.681 139.758 95.6202 142.6C87.6239 145.109 80.5212 150.214 72.3058 151.87C65.1666 153.31 57.4844 152.075 50.747 154.844C42.3026 158.315 37.3987 167.307 35.2341 176.178C32.1977 188.627 33.3251 202.054 38.397 213.818C43.469 225.585 56.6736 239.648 67.8085 245.983C79.1577 259.555 99.3846 250.677 107.968 239.178C116.553 227.684 126.208 191.313 126.208 191.313Z" fill="#37474F"/>
<path d="M121.039 181.417C126.245 188.95 128.901 198.009 130.011 207.098C131.122 216.188 130.761 225.388 130.401 234.538C130.26 238.082 130.036 241.872 127.891 244.697C125.358 248.034 120.8 249.108 116.612 249.137C112.426 249.164 108.623 249.137 104.07 248.984L103.166 267.926C88.216 276.222 71.4102 270.437 67.0443 264.543L67.8089 245.986C91.0527 250.353 103.605 242.383 105.786 227.974C101.18 228.659 95.6936 227.748 92.37 224.489C89.0438 221.228 87.3613 216.368 87.9555 211.748C88.2209 209.687 88.9465 207.632 90.3612 206.112C92.6938 203.606 96.6262 202.997 99.8647 204.115C103.101 205.233 105.667 207.829 107.376 210.796C109.086 213.762 110.03 217.102 110.861 220.424C113.59 218.429 114.813 214.171 113.656 210.993C113.033 209.278 111.791 207.642 112.056 205.837C112.356 203.796 114.428 202.534 115.409 200.719C116.242 199.178 116.23 197.29 115.757 195.602C115.285 193.914 114.391 192.38 113.508 190.865C115.295 187.718 118.416 183.914 121.039 181.417Z" fill="#FFA8A7"/>
<path d="M31.5086 235.603C39.5876 226.893 46.3421 216.778 50.0797 205.501C53.8173 194.221 54.3944 181.714 50.4937 170.491C48.2925 164.153 44.6133 158.213 39.3368 154.072C34.0604 149.931 27.0892 147.749 20.493 148.962C10.0252 150.889 2.52082 160.987 0.62888 171.465C-1.26305 181.943 1.39829 192.694 4.80231 202.782C9.05126 215.38 18.7715 230.885 17.1011 248.677C22.3752 245.043 27.1671 240.284 31.5086 235.603Z" fill="#37474F"/>
<path d="M115.825 269.455C143.182 257.521 144.16 285.954 159.179 313.67C168.378 331.489 176.377 354.333 176.377 354.333C203.241 350.328 219.974 343.621 235.806 342.001C243.793 356.31 242.271 373.055 242.271 373.055L173.44 389.596C162.225 392.29 150.669 386.744 145.741 376.312C126.68 335.995 105.443 295.298 115.825 269.455Z" fill="#455A64"/>
<path d="M115.825 269.455C143.182 257.521 144.16 285.954 159.179 313.67C168.378 331.489 176.377 354.333 176.377 354.333C203.241 350.328 219.974 343.621 235.806 342.001C243.793 356.31 242.271 373.055 242.271 373.055L173.44 389.596C162.225 392.29 150.669 386.744 145.741 376.312C126.68 335.995 105.443 295.298 115.825 269.455Z" fill="#8795DD"/>
<path opacity="0.3" d="M50.8984 451.661C60.4287 460.003 72.9296 464.604 85.5913 464.604L88.8711 494.767L85.8835 550.177L79.818 470.064C68.0208 468.859 57.5994 461.445 50.8984 451.661Z" fill="black"/>
</svg>
